<svg version="1.1" viewBox="0.0 0.0 576.0 576.0" fill="none" stroke="none" stroke-linecap="square" stroke-miterlimit="10" xmlns:xlink="http://www.w3.org/1999/xlink" xmlns="http://www.w3.org/2000/svg"><clipPath id="p.0"><path d="m0 0l576.0 0l0 576.0l-576.0 0l0 -576.0z" clip-rule="nonzero"/></clipPath>
<g clip-path="url(#p.0)">
	<path fill="#000000" fill-opacity="0.0" d="m0 0l576.0 0l0 576.0l-576.0 0z" fill-rule="evenodd"/>
	<path fill="#ffffff" d="m0 -0.001312336l576.0 0l0 576.0l-576.0 0z" fill-rule="evenodd"/>
	<path fill="#000000" fill-opacity="0.0" d="m197.11285 398.82645c-4.6132965 0.11941528 -19.23796 1.6981506 -27.67978 0.7165222c-8.441818 -0.9816284 -16.639542 -2.658783 -22.97113 -6.6062927c-6.3315887 -3.9475098 -11.7790985 -10.37619 -15.018372 -17.078735c-3.2392883 -6.702545 -4.8412094 -14.656158 -4.417328 -23.136475c0.42388916 -8.480316 2.7082214 -18.94928 6.9606323 -27.745422c4.252411 -8.796143 11.290024 -17.669281 18.553802 -25.031494c7.2637787 -7.362213 17.501312 -12.821503 25.02887 -19.141724c7.5275574 -6.320221 14.620743 -11.821075 20.13649 -18.779541c5.515747 -6.958435 10.013123 -14.430878 12.958008 -22.971115c2.94487 -8.540253 4.809265 -19.632553 4.7112885 -28.27034c-0.09799194 -8.637802 -2.1894226 -16.82196 -5.299225 -23.556442c-3.109787 -6.7344666 -7.942688 -12.787399 -13.359573 -16.850388c-5.4168854 -4.0629883 -12.368774 -6.5183716 -19.141739 -7.5275574c-6.7729645 -1.0091858 -15.164917 -0.2449646 -21.496063 1.4724426c-6.3311462 1.7174072 -11.5516205 5.210846 -16.490814 8.832016c-4.9391937 3.62117 -10.953629 10.74585 -13.144348 12.89502" fill-rule="evenodd"/>
	<path stroke="#cc0000" stroke-width="12.0" stroke-linejoin="round" stroke-linecap="butt" d="m197.11285 398.82645c-4.6132965 0.11941528 -19.23796 1.6981506 -27.67978 0.7165222c-8.441818 -0.9816284 -16.639542 -2.658783 -22.97113 -6.6062927c-6.3315887 -3.9475098 -11.7790985 -10.37619 -15.018372 -17.078735c-3.2392883 -6.702545 -4.8412094 -14.656158 -4.417328 -23.136475c0.42388916 -8.480316 2.7082214 -18.94928 6.9606323 -27.745422c4.252411 -8.796143 11.290024 -17.669281 18.553802 -25.031494c7.2637787 -7.362213 17.501312 -12.821503 25.02887 -19.141724c7.5275574 -6.320221 14.620743 -11.821075 20.13649 -18.779541c5.515747 -6.958435 10.013123 -14.430878 12.958008 -22.971115c2.94487 -8.540253 4.809265 -19.632553 4.7112885 -28.27034c-0.09799194 -8.637802 -2.1894226 -16.82196 -5.299225 -23.556442c-3.109787 -6.7344666 -7.942688 -12.787399 -13.359573 -16.850388c-5.4168854 -4.0629883 -12.368774 -6.5183716 -19.141739 -7.5275574c-6.7729645 -1.0091858 -15.164917 -0.2449646 -21.496063 1.4724426c-6.3311462 1.7174072 -11.5516205 5.210846 -16.490814 8.832016c-4.9391937 3.62117 -10.953629 10.74585 -13.144348 12.89502" fill-rule="evenodd"/>
	<path fill="#cc0000" d="m144.53122 192.50772l-54.299217 37.133865l26.83464 -60.06299z" fill-rule="evenodd"/>
<path fill="#ffffff" d="m259.32635 148.03719l0 0c4.6014404 -18.369415 23.222992 -29.530571 41.592438 -24.92913l102.15219 25.588585l0 0c8.82132 2.2096863 16.403534 7.8331146 21.078644 15.633209c4.67511 7.8000946 6.0601807 17.137909 3.8504944 25.959213l-67.82291 270.75592c-4.6014404 18.369415 -23.222992 29.530579 -41.592407 24.929138l-102.15222 -25.588593c-18.369415 -4.6014404 -29.530579 -23.222992 -24.929123 -41.592407z" fill-rule="evenodd"/>
<path stroke="#000000" stroke-width="12.0" stroke-linejoin="round" stroke-linecap="butt" d="m259.32635 148.03719l0 0c4.6014404 -18.369415 23.222992 -29.530571 41.592438 -24.92913l102.15219 25.588585l0 0c8.82132 2.2096863 16.403534 7.8331146 21.078644 15.633209c4.67511 7.8000946 6.0601807 17.137909 3.8504944 25.959213l-67.82291 270.75592c-4.6014404 18.369415 -23.222992 29.530579 -41.592407 24.929138l-102.15222 -25.588593c-18.369415 -4.6014404 -29.530579 -23.222992 -24.929123 -41.592407z" fill-rule="evenodd"/>
<path fill="#000000" d="m309.3582 205.51479l0 0c3.2802734 -13.095215 16.555237 -21.051788 29.650452 -17.771515l0 0c6.2885437 1.5752563 11.693756 5.584091 15.026581 11.144638c3.3327942 5.560547 4.3201904 12.217285 2.744934 18.505829l0 0c-3.2802734 13.09523 -16.555237 21.051804 -29.650452 17.771515l0 0c-13.095245 -3.2802734 -21.051819 -16.555237 -17.771515 -29.650467z" fill-rule="evenodd"/>
<path fill="#000000" fill-opacity="0.0" d="m225.4149 283.41516l168.6913 42.181824" fill-rule="evenodd"/>
<path stroke="#000000" stroke-width="8.0" stroke-linejoin="round" stroke-linecap="butt" d="m225.4149 283.41516l168.6913 42.181824" fill-rule="evenodd"/>
<path fill="#000000" d="m237.45464 339.5378l0 0c3.2784882 -13.088074 16.558884 -21.03714 29.662613 -17.75473l0 0c6.292633 1.5762634 11.702087 5.5847473 15.038391 11.143585c3.3363037 5.558838 4.3261414 12.212677 2.7517395 18.497803l0 0c-3.2785034 13.088074 -16.558899 21.03714 -29.662613 17.75473l0 0c-13.103714 -3.2824097 -21.068634 -16.553314 -17.79013 -29.641388z" fill-rule="evenodd"/>
<path fill="#000000" d="m291.56534 429.851l0 0c3.2785034 -13.088074 16.558899 -21.03714 29.662628 -17.75473l0 0c6.2926025 1.5762634 11.702087 5.584717 15.038391 11.143555c3.3363037 5.5588684 4.326111 12.2127075 2.7517395 18.497833l0 0c-3.2785034 13.088074 -16.558899 21.03714 -29.662628 17.75473l0 0c-13.103699 -3.2824097 -21.068604 -16.553314 -17.79013 -29.641388z" fill-rule="evenodd"/>
<path fill="#ffffff" d="m316.35907 177.77704l0 0c2.4904785 -9.9423065 15.125214 -15.342941 28.220428 -12.062653l0 0c13.095215 3.2802734 21.692047 13.999298 19.201569 23.941605l0 0c-2.490509 9.942322 -15.125214 15.342957 -28.220459 12.062668l0 0c-13.095215 -3.2802734 -21.692047 -13.999298 -19.201538 -23.94162z" fill-rule="evenodd"/>
<path fill="#000000" fill-opacity="0.0" d="m359.93314 249.30743l0 0c-6.62854 10.179108 -21.942749 13.612305 -38.444 8.618469c-16.50122 -4.9938354 -30.735748 -17.36943 -35.73355 -31.067093l37.825867 0.43190002z" fill-rule="evenodd"/>
<path fill="#000000" fill-opacity="0.0" d="m359.93314 249.30743l0 0c-6.62854 10.179108 -21.942749 13.612305 -38.444 8.618469c-16.50122 -4.9938354 -30.735748 -17.36943 -35.73355 -31.067093" fill-rule="evenodd"/><path stroke="#000000" stroke-width="8.0" stroke-linejoin="round" stroke-linecap="butt" d="m359.93314 249.30743l0 0c-6.62854 10.179108 -21.942749 13.612305 -38.444 8.618469c-16.50122 -4.9938354 -30.735748 -17.36943 -35.73355 -31.067093" fill-rule="evenodd"/>
<path fill="#ffffff" d="m332.13132 210.62991l0 0c0.33050537 -6.9144287 3.905182 -12.364563 7.984253 -12.173218l0 0c1.9588623 0.09188843 3.774414 1.4990387 5.0473022 3.911911c1.2728882 2.4128723 1.8988342 5.6338043 1.7401123 8.954224l0 0c-0.33050537 6.9144287 -3.905182 12.364578 -7.984253 12.173233l0 0c-4.079071 -0.19134521 -7.1178894 -5.951706 -6.7874146 -12.86615z" fill-rule="evenodd"/>
<path fill="#000000" fill-opacity="0.0" d="m363.7748 243.39742l0 0c-2.7748718 10.322571 -16.83081 13.958603 -35.183044 9.101242c-18.352234 -4.857361 -37.08777 -17.172455 -46.896362 -30.825546l37.984406 0.44763184z" fill-rule="evenodd"/><path fill="#000000" fill-opacity="0.0" d="m363.7748 243.39742l0 0c-2.7748718 10.322571 -16.83081 13.958603 -35.183044 9.101242c-18.352234 -4.857361 -37.08777 -17.172455 -46.896362 -30.825546" fill-rule="evenodd"/>
<path stroke="#ffffff" stroke-width="8.0" stroke-linejoin="round" stroke-linecap="butt" d="m363.7748 243.39742l0 0c-2.7748718 10.322571 -16.83081 13.958603 -35.183044 9.101242c-18.352234 -4.857361 -37.08777 -17.172455 -46.896362 -30.825546" fill-rule="evenodd"/>
<path fill="#cc0000" d="m266.01883 152.61116l0 0c-15.478821 -31.61335 -12.024796 -73.04829 8.299652 -99.56358l1.644104 2.1526566l0 0c-19.190979 25.569324 -22.457565 65.26189 -7.8742676 95.680084z" fill-rule="evenodd"/>
<path fill="#cc0000" d="m302.11047 133.00258l0 0c-28.846466 -14.823395 -41.4169 -49.323753 -28.878967 -79.2601l2.4743958 1.0313148l0 0c-12.0008545 28.64766 0.027893066 61.66288 27.63379 75.84616z" fill-rule="evenodd"/>
<path fill="#cc0000" d="m265.68558 152.69197l0 0c-1.6437988 -3.148468 5.8580933 -10.340103 16.75592 -16.063004l0 0c10.897827 -5.722885 21.06485 -7.8098755 22.708649 -4.6614075l0 0c1.6438293 3.1484528 -5.8580627 10.340103 -16.75589 16.062988l0 0c-10.897827 5.722885 -21.06485 7.8098755 -22.70868 4.6614227z" fill-rule="evenodd"/>
<path fill="#cc0000" d="m265.13092 147.61795c-1.2515259 -4.245407 -5.692047 -15.288712 -6.771637 -23.85302c-1.0796204 -8.564301 -0.83465576 -18.723099 0.2939453 -27.532806c1.1286011 -8.809708 4.416443 -19.534119 6.4776917 -25.325462c2.0612488 -5.791336 5.0551147 -9.12817 5.8897705 -9.422569c0.83465576 -0.29439926 -0.7349243 3.9260712 -0.881897 7.656166c-0.14697266 3.730095 -0.3678894 10.16011 0 14.724411c0.3678894 4.564308 0.39151 7.6797943 2.2073364 12.661415c1.8158569 4.9816284 4.834656 12.074806 8.687683 17.228348c3.8530273 5.1535416 10.994751 10.748032 14.43045 13.692917c3.4356995 2.9448776 6.25766 2.2340317 6.183716 3.9763718c-0.073913574 1.7423553 -2.5778503 3.5822449 -6.627289 6.4776917c-4.0494385 2.8954468 -13.178497 8.735352 -17.669312 10.89502c-4.4907837 2.159668 -7.3617554 1.989502 -9.275574 2.0629883c-1.9138184 0.07348633 -1.7165222 -1.0818024 -2.2073364 -1.6220398c-0.4908142 -0.5402527 0.51397705 2.6259766 -0.7375488 -1.6194305z" fill-rule="evenodd"/>
<path fill="#000000" fill-opacity="0.0" d="m262.33652 70.61391c0.83465576 -1.2760315 2.9461975 -4.9566956 5.0078735 -7.65617c2.061676 -2.6994743 6.3315735 -9.15398 7.362213 -8.54068c1.0306091 0.6132965 -0.90856934 9.152668 -1.1784668 12.22047c-0.26992798 3.0678024 -0.36746216 5.1552963 -0.4409485 6.1863556" fill-rule="evenodd"/>
<path stroke="#ffffff" stroke-width="3.0" stroke-linejoin="round" stroke-linecap="butt" d="m262.33652 70.61391c0.83465576 -1.2760315 2.9461975 -4.9566956 5.0078735 -7.65617c2.061676 -2.6994743 6.3315735 -9.15398 7.362213 -8.54068c1.0306091 0.6132965 -0.90856934 9.152668 -1.1784668 12.22047c-0.26992798 3.0678024 -0.36746216 5.1552963 -0.4409485 6.1863556" fill-rule="evenodd"/>
<path fill="#cc0000" d="m419.19635 192.5274l0 0c29.206635 -19.636154 46.929108 -57.241333 42.585175 -90.36111l-2.4997253 1.042099l0 0c3.8353271 31.734032 -13.178436 67.73681 -41.012177 86.78573z" fill-rule="evenodd"/>
<path fill="#cc0000" d="m398.04135 156.99612l0 0c32.388367 1.5847778 60.519836 -22.005127 64.62842 -54.194725l-2.658142 -0.3439331l0 0c-3.9294128 30.805244 -30.849426 53.379936 -61.843567 51.86106z" fill-rule="evenodd"/>
<path fill="#cc0000" d="m419.73892 192.25397l0 0c2.9973145 -1.9045105 0.0965271 -11.881943 -6.4790344 -22.285217l0 0c-6.5755615 -10.403275 -14.335907 -17.292892 -17.33319 -15.388382l0 0c-2.997284 1.9045105 -0.0965271 11.881943 6.479065 22.285217l0 0c6.5755615 10.403275 14.335876 17.292892 17.33316 15.388382z" fill-rule="evenodd"/>
<path fill="#cc0000" d="m422.75574 188.13766c3.2059631 -3.0504608 12.571564 -10.393051 17.78769 -17.26918c5.2161255 -6.876129 10.082397 -15.79509 13.509094 -23.98761c3.4267273 -8.19252 5.940918 -19.122383 7.051178 -25.167519c1.11026 -6.0451355 0.1859436 -10.431137 -0.38961792 -11.103294c-0.575531 -0.6721649 -1.3262634 3.7669678 -3.0636902 7.0703278c-1.7373962 3.3033676 -4.7604675 8.9815445 -7.360718 12.749863c-2.6002502 3.7683258 -4.178131 6.4542236 -8.240784 9.860077c-4.0626526 3.4058533 -10.222504 8.038727 -16.135101 10.575058c-5.9125977 2.5363312 -14.893311 3.81044 -19.340424 4.642914c-4.447113 0.83247375 -6.5352783 -1.1937561 -7.3422546 0.3518982c-0.80700684 1.5456543 0.44140625 4.3905334 2.5003662 8.922028c2.05896 4.531479 7.0444336 14.151855 9.853424 18.266861c2.80896 4.1150208 5.380005 5.4028625 7.0004272 6.423218c1.6204529 1.0203552 2.0271606 -0.0786438 2.722229 -0.30107117c0.69503784 -0.22244263 -1.7578125 2.0168915 1.4481812 -1.0335693z" fill-rule="evenodd"/>
<path fill="#000000" fill-opacity="0.0" d="m463.6697 122.85678c-0.08483887 -1.5221558 -0.07324219 -5.764801 -0.5090027 -9.132912c-0.43572998 -3.3681107 -0.9064331 -11.091591 -2.1054382 -11.075745c-1.1990051 0.015846252 -3.7886658 8.379494 -5.088562 11.17083c-1.2998962 2.791336 -2.2589417 4.6476593 -2.7107544 5.5771866" fill-rule="evenodd"/>
<path stroke="#ffffff" stroke-width="3.0" stroke-linejoin="round" stroke-linecap="butt" d="m463.6697 122.85678c-0.08483887 -1.5221558 -0.07324219 -5.764801 -0.5090027 -9.132912c-0.43572998 -3.3681107 -0.9064331 -11.091591 -2.1054382 -11.075745c-1.1990051 0.015846252 -3.7886658 8.379494 -5.088562 11.17083c-1.2998962 2.791336 -2.2589417 4.6476593 -2.7107544 5.5771866" fill-rule="evenodd"/>
</g>
</svg>